<svg width="97" height="17" viewBox="0 0 97 17" fill="none" xmlns="http://www.w3.org/2000/svg">
<path d="M1.11861 14V3.81818H4.74787C5.54001 3.81818 6.19626 3.96236 6.71662 4.25071C7.23698 4.53906 7.62642 4.93347 7.88494 5.43395C8.14347 5.93111 8.27273 6.49124 8.27273 7.11435C8.27273 7.74077 8.14181 8.30421 7.87997 8.80469C7.62145 9.30185 7.23035 9.69626 6.70668 9.98793C6.18632 10.2763 5.53172 10.4205 4.7429 10.4205H2.24716V9.1179H4.60369C5.10417 9.1179 5.51018 9.03172 5.82173 8.85938C6.13329 8.68371 6.36198 8.44508 6.50781 8.14347C6.65365 7.84186 6.72656 7.49882 6.72656 7.11435C6.72656 6.72988 6.65365 6.38849 6.50781 6.0902C6.36198 5.7919 6.13163 5.55824 5.81676 5.3892C5.50521 5.22017 5.09422 5.13565 4.58381 5.13565H2.65483V14H1.11861ZM9.95437 14V6.36364H11.3912V7.5767H11.4707C11.6099 7.16572 11.8552 6.84257 12.2065 6.60724C12.5611 6.36861 12.9622 6.24929 13.4096 6.24929C13.5024 6.24929 13.6118 6.2526 13.7377 6.25923C13.867 6.26586 13.9681 6.27415 14.041 6.28409V7.70597C13.9814 7.68939 13.8753 7.67116 13.7228 7.65128C13.5704 7.62808 13.4179 7.61648 13.2654 7.61648C12.9141 7.61648 12.6009 7.69105 12.3258 7.8402C12.054 7.98603 11.8386 8.18987 11.6795 8.4517C11.5204 8.71023 11.4409 9.00521 11.4409 9.33665V14H9.95437ZM18.2706 14.1541C17.5547 14.1541 16.9299 13.9901 16.3963 13.6619C15.8627 13.3338 15.4484 12.8748 15.1534 12.2848C14.8584 11.6948 14.7109 11.0054 14.7109 10.2166C14.7109 9.42448 14.8584 8.73177 15.1534 8.13849C15.4484 7.54522 15.8627 7.08452 16.3963 6.75639C16.9299 6.42827 17.5547 6.2642 18.2706 6.2642C18.9865 6.2642 19.6113 6.42827 20.1449 6.75639C20.6785 7.08452 21.0928 7.54522 21.3878 8.13849C21.6828 8.73177 21.8303 9.42448 21.8303 10.2166C21.8303 11.0054 21.6828 11.6948 21.3878 12.2848C21.0928 12.8748 20.6785 13.3338 20.1449 13.6619C19.6113 13.9901 18.9865 14.1541 18.2706 14.1541ZM18.2756 12.9062C18.7396 12.9062 19.1241 12.7836 19.429 12.5384C19.7339 12.2931 19.9593 11.9666 20.1051 11.5589C20.2543 11.1513 20.3288 10.7022 20.3288 10.2116C20.3288 9.72443 20.2543 9.27699 20.1051 8.86932C19.9593 8.45833 19.7339 8.12855 19.429 7.87997C19.1241 7.63139 18.7396 7.5071 18.2756 7.5071C17.8082 7.5071 17.4205 7.63139 17.1122 7.87997C16.8073 8.12855 16.5803 8.45833 16.4311 8.86932C16.2853 9.27699 16.2124 9.72443 16.2124 10.2116C16.2124 10.7022 16.2853 11.1513 16.4311 11.5589C16.5803 11.9666 16.8073 12.2931 17.1122 12.5384C17.4205 12.7836 17.8082 12.9062 18.2756 12.9062ZM23.4895 6.36364H24.976V14.4972C24.976 15.0076 24.8832 15.4384 24.6976 15.7898C24.5153 16.1411 24.2435 16.4079 23.8823 16.5902C23.5243 16.7725 23.0819 16.8636 22.5549 16.8636C22.5018 16.8636 22.4521 16.8636 22.4057 16.8636C22.356 16.8636 22.3046 16.862 22.2516 16.8587V15.581C22.298 15.581 22.3394 15.581 22.3759 15.581C22.409 15.581 22.4471 15.581 22.4902 15.581C22.8416 15.581 23.0951 15.4865 23.2509 15.2976C23.41 15.112 23.4895 14.8419 23.4895 14.4872V6.36364ZM24.2253 5.18537C23.9668 5.18537 23.7447 5.09919 23.5591 4.92685C23.3768 4.75118 23.2857 4.54238 23.2857 4.30043C23.2857 4.05516 23.3768 3.84635 23.5591 3.67401C23.7447 3.49834 23.9668 3.41051 24.2253 3.41051C24.4838 3.41051 24.7042 3.49834 24.8865 3.67401C25.0721 3.84635 25.165 4.05516 25.165 4.30043C25.165 4.54238 25.0721 4.75118 24.8865 4.92685C24.7042 5.09919 24.4838 5.18537 24.2253 5.18537ZM30.267 14.1541C29.5147 14.1541 28.8667 13.9934 28.3232 13.6719C27.7829 13.3471 27.3653 12.8913 27.0703 12.3047C26.7786 11.7147 26.6328 11.0237 26.6328 10.2315C26.6328 9.44934 26.7786 8.75994 27.0703 8.16335C27.3653 7.56676 27.7763 7.10109 28.3033 6.76633C28.8336 6.43158 29.4534 6.2642 30.1626 6.2642C30.5935 6.2642 31.0111 6.33546 31.4155 6.47798C31.8198 6.6205 32.1828 6.84422 32.5043 7.14915C32.8258 7.45407 33.0793 7.85014 33.2649 8.33736C33.4505 8.82126 33.5433 9.40956 33.5433 10.1023V10.6293H27.473V9.51562H32.0866C32.0866 9.12453 32.0071 8.77817 31.848 8.47656C31.6889 8.17164 31.4652 7.93134 31.1768 7.75568C30.8918 7.58002 30.5571 7.49219 30.1726 7.49219C29.755 7.49219 29.3904 7.59493 29.0788 7.80043C28.7706 8.0026 28.532 8.26776 28.3629 8.59588C28.1972 8.92069 28.1143 9.27367 28.1143 9.65483V10.5249C28.1143 11.0353 28.2038 11.4695 28.3828 11.8274C28.5651 12.1854 28.8187 12.4588 29.1435 12.6477C29.4683 12.8333 29.8478 12.9261 30.282 12.9261C30.5637 12.9261 30.8205 12.8864 31.0526 12.8068C31.2846 12.724 31.4851 12.6013 31.6541 12.4389C31.8232 12.2765 31.9524 12.076 32.0419 11.8374L33.4489 12.0909C33.3362 12.5052 33.134 12.8681 32.8423 13.1797C32.554 13.4879 32.1911 13.7282 31.7536 13.9006C31.3194 14.0696 30.8239 14.1541 30.267 14.1541ZM38.4093 14.1541C37.6702 14.1541 37.0338 13.9867 36.5002 13.652C35.9699 13.3139 35.5622 12.8482 35.2772 12.255C34.9921 11.6617 34.8496 10.9822 34.8496 10.2166C34.8496 9.44105 34.9954 8.75663 35.2871 8.16335C35.5788 7.56676 35.9898 7.10109 36.5201 6.76633C37.0504 6.43158 37.6751 6.2642 38.3944 6.2642C38.9744 6.2642 39.4914 6.37192 39.9455 6.58736C40.3996 6.79948 40.7658 7.09777 41.0442 7.48224C41.3259 7.86671 41.4933 8.31581 41.5463 8.82955H40.0996C40.0201 8.47159 39.8378 8.16335 39.5527 7.90483C39.271 7.64631 38.8932 7.51705 38.4192 7.51705C38.0049 7.51705 37.642 7.62642 37.3304 7.84517C37.0222 8.06061 36.7819 8.36884 36.6096 8.76989C36.4372 9.16761 36.351 9.63826 36.351 10.1818C36.351 10.7386 36.4355 11.2192 36.6046 11.6236C36.7736 12.0279 37.0123 12.3411 37.3205 12.5632C37.632 12.7853 37.9983 12.8963 38.4192 12.8963C38.7009 12.8963 38.9561 12.8449 39.1848 12.7422C39.4168 12.6361 39.6107 12.4853 39.7665 12.2898C39.9256 12.0942 40.0366 11.8589 40.0996 11.5838H41.5463C41.4933 12.0777 41.3326 12.5185 41.0641 12.9062C40.7956 13.294 40.436 13.599 39.9853 13.821C39.5378 14.0431 39.0125 14.1541 38.4093 14.1541ZM46.7006 6.36364V7.55682H42.5295V6.36364H46.7006ZM43.6481 4.53409H45.1346V11.7578C45.1346 12.0462 45.1777 12.2633 45.2638 12.4091C45.35 12.5516 45.4611 12.6494 45.5969 12.7024C45.7362 12.7521 45.887 12.777 46.0494 12.777C46.1687 12.777 46.2731 12.7687 46.3626 12.7521C46.4521 12.7356 46.5217 12.7223 46.5714 12.7124L46.8398 13.9403C46.7537 13.9735 46.631 14.0066 46.4719 14.0398C46.3129 14.0762 46.114 14.0961 45.8754 14.0994C45.4843 14.1061 45.1197 14.0365 44.7816 13.8906C44.4435 13.7448 44.1701 13.5194 43.9613 13.2145C43.7525 12.9096 43.6481 12.5268 43.6481 12.0661V4.53409ZM52.1694 14V3.81818H53.7056V12.6776H58.3192V14H52.1694ZM59.9524 14V6.36364H61.4389V14H59.9524ZM60.7031 5.18537C60.4446 5.18537 60.2225 5.09919 60.0369 4.92685C59.8546 4.75118 59.7635 4.54238 59.7635 4.30043C59.7635 4.05516 59.8546 3.84635 60.0369 3.67401C60.2225 3.49834 60.4446 3.41051 60.7031 3.41051C60.9616 3.41051 61.1821 3.49834 61.3643 3.67401C61.55 3.84635 61.6428 4.05516 61.6428 4.30043C61.6428 4.54238 61.55 4.75118 61.3643 4.92685C61.1821 5.09919 60.9616 5.18537 60.7031 5.18537ZM64.9252 9.46591V14H63.4387V6.36364H64.8656V7.60653H64.96C65.1357 7.20218 65.4108 6.87737 65.7853 6.6321C66.1632 6.38684 66.6388 6.2642 67.2122 6.2642C67.7325 6.2642 68.1883 6.37358 68.5794 6.59233C68.9705 6.80777 69.2737 7.12926 69.4892 7.55682C69.7046 7.98437 69.8123 8.51302 69.8123 9.14276V14H68.3258V9.32173C68.3258 8.76823 68.1816 8.3357 67.8933 8.02415C67.6049 7.70928 67.2089 7.55185 66.7051 7.55185C66.3604 7.55185 66.0538 7.62642 65.7853 7.77557C65.5202 7.92472 65.3097 8.14347 65.1539 8.43182C65.0015 8.71686 64.9252 9.06155 64.9252 9.46591ZM73.1731 11.4098L73.1632 9.59517H73.4217L76.4643 6.36364H78.2441L74.774 10.0426H74.5403L73.1731 11.4098ZM71.8059 14V3.81818H73.2924V14H71.8059ZM76.6284 14L73.894 10.3707L74.9181 9.33168L78.4529 14H76.6284Z" fill="#6A87A3"/>
<path fill-rule="evenodd" clip-rule="evenodd" d="M90.2051 5.70507C90.3364 5.57384 90.5144 5.50012 90.7 5.50012C90.8856 5.50012 91.0636 5.57384 91.1949 5.70507L93.9949 8.50507C94.1261 8.63634 94.1998 8.81436 94.1998 8.99997C94.1998 9.18559 94.1261 9.3636 93.9949 9.49487L91.1949 12.2949C91.0629 12.4224 90.886 12.4929 90.7025 12.4913C90.519 12.4897 90.3434 12.4161 90.2136 12.2863C90.0838 12.1566 90.0102 11.981 90.0086 11.7975C90.007 11.6139 90.0776 11.4371 90.2051 11.3051L91.8102 9.69997H86.5C86.3143 9.69997 86.1363 9.62622 86.005 9.49495C85.8737 9.36367 85.8 9.18562 85.8 8.99997C85.8 8.81432 85.8737 8.63627 86.005 8.505C86.1363 8.37372 86.3143 8.29997 86.5 8.29997H91.8102L90.2051 6.69487C90.0739 6.5636 90.0001 6.38559 90.0001 6.19997C90.0001 6.01436 90.0739 5.83634 90.2051 5.70507Z" fill="#6A87A3"/>
</svg>
